<svg xmlns="http://www.w3.org/2000/svg" viewBox="0 0 30.4 12"><defs><style>.cls-1{fill:none;}.cls-2{fill:#df1f26;}</style></defs><title>logo_light</title><g id="Layer_2" data-name="Layer 2"><g id="Layer_2-2" data-name="Layer 2"><rect class="cls-1" width="30.4" height="12"/></g><g id="Layer_1-2" data-name="Layer 1"><g id="white"><path class="cls-2" d="M7.42,7.54A.56.56,0,0,1,6.84,7V6.46h.79v.36H8.94V6.23H7.42a.49.49,0,0,1-.54-.54V4.94a.56.56,0,0,1,.58-.59H9.13a.56.56,0,0,1,.58.59v.43H8.92v-.3H7.68v.51H9.2a.49.49,0,0,1,.54.54V7a.55.55,0,0,1-.58.58Z"/><path class="cls-2" d="M11.1,7.54V5.07H10V4.36H13v.71H11.89V7.54Z"/><path class="cls-2" d="M15.37,7.54l-.58-1h-.73v1h-.79V4.35h2.21a.56.56,0,0,1,.58.59V6a.54.54,0,0,1-.39.55l.63,1Zm-.1-2.47h-1.2v.74h1.2Z"/><path class="cls-2" d="M19.39,7.54V5.91c0-.16,0-.32,0-.49l-.66,2.12H18l-.66-2.12c0,.16,0,.32,0,.49V7.54h-.79V4.35h1.08l.56,1.73c.05.15.11.36.18.62.07-.26.13-.47.18-.62l.55-1.73h1.08V7.53h-.8Z"/><path class="cls-2" d="M5.37,5.61,1.42,3.33a.45.45,0,0,0-.68.39V5.5l.12-.09.44-.26V4.31a.23.23,0,0,1,.34-.2l.74.43,1,.59,1.19.68a.23.23,0,0,1,0,.39L3.4,6.88l-1,.59-.73.42a.23.23,0,0,1-.34-.2V6.84L.86,6.59A.44.44,0,0,1,.75,6.5V8.28a.45.45,0,0,0,.68.39l4-2.28A.45.45,0,0,0,5.37,5.61Z"/><path d="M22.71,7.54,22,6.24l-.37-.71v2h-.86V4.35h.92L22.59,6l.26.48V4.35h.79V7.53h-.93Z"/><path d="M24.88,6.46V7.54h-.79V4.94a.57.57,0,0,1,.59-.59h2v.72h-1.8v.67h1.66v.72Z"/><path d="M28,7.54V5.07H27V4.36h2.9v.71H28.8V7.54Z"/><path d="M1.76,5.81,3,5.12,2.39,4.8l-.85.49L1,5.61a.45.45,0,0,0,0,.78l.56.33.85.49L3,6.89,1.76,6.2A.23.23,0,0,1,1.76,5.81Z"/></g></g></g></svg>