<?xml version="1.0" encoding="utf-8"?>
<!-- Generator: Adobe Illustrator 22.0.1, SVG Export Plug-In . SVG Version: 6.00 Build 0)  -->
<svg version="1.1" id="레이어_1" xmlns="http://www.w3.org/2000/svg" xmlns:xlink="http://www.w3.org/1999/xlink" x="0px"
	 y="0px" viewBox="0 0 434.5 54" style="enable-background:new 0 0 434.5 54;" xml:space="preserve">
<style type="text/css">
	.st0{fill:#DF1F26;}
	.st1{stroke:#050505;stroke-miterlimit:10;}
</style>
<title>logo_light</title>
<g id="Layer_2">
	<g id="Layer_1-2">
		<g id="white">
			<path class="st0" d="M66,42.2c-3.1,0.1-5.6-2.3-5.7-5.3c0,0,0,0,0,0v-5.3H68v3.6H81v-5.8H66c-2.7,0.3-5-1.6-5.3-4.3
				c0-0.3,0-0.7,0-1v-7.4c-0.2-3,2.2-5.7,5.2-5.8c0.2,0,0.3,0,0.5,0h16.5c3.1-0.1,5.6,2.3,5.7,5.3c0,0.2,0,0.3,0,0.5v4.2h-7.8v-3
				H68.5v5h15c2.7-0.3,5,1.6,5.3,4.3c0,0.3,0,0.7,0,1v8.7c0.2,3-2.1,5.6-5.1,5.7c-0.2,0-0.4,0-0.6,0L66,42.2z"/>
			<path class="st0" d="M102.3,42.2V17.8H91.4v-7h29.6v7h-11v24.4H102.3z"/>
			<path class="st0" d="M144.5,42.2l-5.7-9.9h-7.2v9.9h-7.8V10.7h21.8c3.1-0.1,5.6,2.3,5.7,5.3c0,0.2,0,0.3,0,0.5V27
				c0.1,2.5-1.5,4.7-3.9,5.4l6.2,9.9L144.5,42.2z M143.5,17.8h-11.9v7.3h11.9V17.8z"/>
			<path class="st0" d="M184.2,42.2V26.1c0-1.6,0-3.2,0-4.8l-6.5,20.9h-7.2l-6.5-20.9c0,1.6,0,3.2,0,4.8v16.1h-7.8V10.7h10.7
				l5.5,17.1c0.5,1.5,1.1,3.6,1.8,6.1c0.7-2.6,1.3-4.6,1.8-6.1l5.4-17.1H192v31.4L184.2,42.2L184.2,42.2z"/>
			<path class="st0" d="M45.7,23.1L6.7,0.6C4.6-0.6,1.9,0.1,0.6,2.2C0.2,2.9,0,3.7,0,4.5v17.6l1.2-0.9l4.3-2.6v-8.3
				c0-1.3,1-2.3,2.3-2.3c0.4,0,0.7,0.1,1.1,0.3l7.3,4.2l9.9,5.8l11.8,6.7c1.1,0.7,1.4,2.1,0.7,3.1c-0.2,0.3-0.4,0.5-0.7,0.7
				l-11.6,6.7l-9.9,5.8l-7.2,4.1c-1.1,0.6-2.5,0.2-3.1-0.9c-0.2-0.3-0.3-0.7-0.3-1.1v-8.4l-4.6-2.5c-0.4-0.2-0.8-0.5-1.1-0.9v17.6
				c0,2.5,2,4.5,4.4,4.5c0.8,0,1.6-0.2,2.3-0.6l39.5-22.5c2-1.4,2.6-4.1,1.2-6.2C47.1,24,46.4,23.5,45.7,23.1z"/>
			<path d="M217,42.2l-7-12.8l-3.7-7v19.8h-8.5V10.7h9.1l8.9,16.3l2.6,4.7v-21h7.8v31.4L217,42.2L217,42.2z"/>
			<path d="M238.4,31.5v10.7h-7.8V16.5c-0.1-3.1,2.3-5.7,5.4-5.8c0.1,0,0.3,0,0.4,0h19.8v7.1h-17.8v6.6h16.4v7.1H238.4z"/>
			<path d="M269.2,42.2V17.8h-9.9v-7H288v7h-10.9v24.4H269.2z"/>
			<path d="M10.1,25.1l12.2-6.8l-6-3.2L7.9,20l-5.3,3.2c-2.1,1.2-2.9,3.9-1.6,6.1c0.4,0.7,1,1.2,1.6,1.6l5.5,3.3l8.4,4.8l5.8-3.2
				L10.1,29c-1.1-0.7-1.4-2.1-0.7-3.1C9.5,25.5,9.8,25.3,10.1,25.1z"/>
		</g>
	</g>
</g>
<image style="overflow:visible;" width="243" height="108" xlink:href="C3A51354.jpg"  transform="matrix(0.1944 0 0 0.1944 189.442 146.9289)">
</image>
<g>
	<rect x="365.8" y="10.7" class="st1" width="7" height="31"/>
	<path class="st1" d="M355,10.7v24h-12.9v-24h-6.4v27.5v0.1v0.1c0,1.9,1.4,3.4,3.1,3.4h0.1h0.7h17.6h0.4h0.4c1.7,0,3.1-1.5,3.1-3.4
		v-0.1v-0.1V10.7H355z"/>
	<path class="st1" d="M331.3,18.9v-4.5c0-0.1,0-0.1,0-0.2v-0.2c0-0.1,0-0.1,0-0.2v-0.2h0c-0.2-1.7-1.6-3.1-3.4-3.1h-0.3
		c0,0-0.1,0-0.1,0v0h-20.6v0.1c-0.1,0-0.2-0.1-0.3-0.1h-0.2c-1.9,0-3.4,1.5-3.4,3.4v0.1v0.1v23.7h0.1c0,0.1-0.1,0.2-0.1,0.3v0.2
		c0,1.9,1.5,3.4,3.4,3.4h0.5h0.5h20.1v0c0,0,0.1,0,0.1,0h0.3c1.9,0,3.4-1.5,3.4-3.4v-0.1v-0.1v-7v-4.8v-0.4h-13.1v5.2h7v4.5h-15.5
		c0,0-0.1,0-0.1-0.1V16.4h14.9v2.6H331.3z"/>
	<path class="st1" d="M393.8,10.7H383h-5.8v5.2v20.7v5.2h5.8h10.8c9.7,0,10.3-7.1,10.3-7.1v-8.4v-8.4
		C404.1,17.8,403.6,10.7,393.8,10.7z M398.7,31.7c0,4.8-4.9,4.9-4.9,4.9H383V15.9h10.8c0,0,4.9,0.1,4.9,4.9v5.5V31.7z"/>
	<polygon class="st1" points="430.9,16 430.9,10.7 414.8,10.7 407.8,10.7 407.8,16 407.8,23.6 407.8,28.9 407.8,36.5 407.8,41.8 
		407.8,41.8 414.8,41.8 414.8,41.8 430.9,41.8 430.9,36.5 414.8,36.5 414.8,28.9 429,28.9 429,23.6 414.8,23.6 414.8,16 	"/>
</g>
<path d="M224.4,113.2L224.4,113.2c-0.2,0-0.4-0.2-0.4-0.3v0c0-0.2,0.2-0.3,0.3-0.3h0c0.2,0,0.3,0.2,0.3,0.3v0
	C224.8,113,224.6,113.2,224.4,113.2z"/>
<path d="M226.6,113.2L226.6,113.2c-0.2,0-0.4-0.2-0.4-0.3v0c0-0.2,0.2-0.3,0.3-0.3h0c0.2,0,0.3,0.2,0.3,0.3v0
	C226.9,113,226.8,113.2,226.6,113.2z"/>
<path d="M226.6,115.6L226.6,115.6c-0.2,0-0.4-0.2-0.4-0.3v0c0-0.2,0.2-0.3,0.3-0.3h0c0.2,0,0.3,0.2,0.3,0.3v0
	C226.9,115.5,226.8,115.6,226.6,115.6z"/>
<path d="M224.5,115.6L224.5,115.6c-0.3,0-0.4-0.2-0.4-0.3v0c0-0.2,0.2-0.3,0.3-0.3h0.1c0.2,0,0.3,0.2,0.3,0.3v0
	C224.9,115.5,224.7,115.6,224.5,115.6z"/>
<path d="M228,115.6L228,115.6c-0.3,0-0.4-0.2-0.4-0.3v0c0-0.2,0.2-0.3,0.3-0.3h0.1c0.2,0,0.3,0.2,0.3,0.3v0
	C228.3,115.5,228.1,115.6,228,115.6z"/>
<rect x="224.1" y="112.8" width="0.7" height="2.4"/>
<rect x="227.5" y="112.5" width="0.7" height="2.8"/>
<rect x="229.6" y="112.5" width="0.7" height="2.8"/>
<rect x="231" y="112.5" width="0.7" height="3.1"/>
<rect x="235.3" y="112.5" width="0.7" height="3.1"/>
<path d="M230,115.6L230,115.6c-0.3,0-0.4-0.2-0.4-0.3v0c0-0.2,0.2-0.3,0.3-0.3h0.1c0.2,0,0.3,0.2,0.3,0.3v0
	C230.3,115.5,230.2,115.6,230,115.6z"/>
<rect x="225.2" y="111.7" transform="matrix(-1.836970e-16 1 -1 -1.836970e-16 338.2593 -112.7527)" width="0.6" height="2.1"/>
<rect x="225.2" y="114.3" transform="matrix(-1.836970e-16 1 -1 -1.836970e-16 340.8182 -110.1938)" width="0.6" height="2.1"/>
<rect x="228.6" y="114.2" transform="matrix(-1.836970e-16 1 -1 -1.836970e-16 344.1685 -113.6586)" width="0.7" height="2.1"/>
<rect x="226.3" y="114.1" transform="matrix(-1 -1.224647e-16 1.224647e-16 -1 453.2601 229.3285)" width="0.6" height="1.2"/>
<rect x="226" y="113.6" transform="matrix(6.123234e-17 -1 1 6.123234e-17 111.9892 340.5641)" width="0.5" height="1.3"/>
<rect x="226.2" y="112.8" width="0.7" height="0.5"/>
<path d="M233.9,113c0,0,0.5,0,0.5,0.5v0.6h0.5v-0.9c0,0-0.1-0.7-1-0.7h-1.7v0.5H233.9"/>
<path d="M233.9,115.1c0,0,0.5,0,0.5-0.5V114h0.5v0.9c0,0-0.1,0.7-1,0.7h-1.7v-0.5H233.9"/>
<rect x="232.3" y="112.5" width="0.6" height="3.1"/>
<rect x="235.3" y="112.5" width="2.3" height="0.5"/>
<rect x="235.3" y="115.1" width="2.3" height="0.5"/>
<rect x="235.3" y="113.8" width="2.1" height="0.5"/>
</svg>
